<svg width="39" height="39" viewBox="0 0 39 39" fill="none" xmlns="http://www.w3.org/2000/svg">
<g clip-path="url(#clip0_958_758)">
<path d="M0 2.69256V36.3074C0 37.7946 1.20537 39 2.69256 39H36.3074C37.7946 39 39 37.7946 39 36.3074V2.69256C39 1.20537 37.7946 0 36.3074 0H2.69256C1.20537 0 0 1.20537 0 2.69256ZM12.4908 28.2019C7.56431 28.2019 3.57124 24.181 3.57124 19.2204C3.57124 14.2598 7.56431 10.2389 12.4926 10.2389C17.4191 10.2389 21.4122 14.2598 21.4122 19.2204C21.4122 24.181 17.4191 28.2019 12.4908 28.2019ZM26.739 27.6742C24.2762 27.6742 22.2792 23.8893 22.2792 19.2195C22.2792 14.5497 24.2762 10.7649 26.739 10.7649C29.2009 10.7649 31.1987 14.5497 31.1987 19.2195C31.1987 23.8893 29.2027 27.6742 26.739 27.6742ZM33.6337 26.7955C32.7676 26.7955 32.0657 23.4047 32.0657 19.2204C32.0657 15.0362 32.7685 11.6453 33.6337 11.6453C34.4989 11.6453 35.2017 15.038 35.2017 19.2204C35.2017 23.4029 34.4989 26.7955 33.6337 26.7955Z" fill="white"/>
</g>
<defs>
<clipPath id="clip0_958_758">
<rect width="39" height="39" fill="white"/>
</clipPath>
</defs>
</svg>
