<svg width="39" height="38" viewBox="0 0 39 38" fill="none" xmlns="http://www.w3.org/2000/svg">
<g clip-path="url(#clip0_958_769)">
<path d="M36.3074 0H2.69256C1.20537 0 0 1.17446 0 2.62352V35.3765C0 36.8255 1.20537 38 2.69256 38H15.5585V25.7446H10.159V19.7551H15.5585V15.1902C15.5585 9.99825 18.7322 7.12986 23.5896 7.12986C25.915 7.12986 28.3491 7.53476 28.3491 7.53476V12.6349H25.6682C23.0277 12.6349 22.2038 14.2309 22.2038 15.8706V19.7569H28.1023L27.159 25.7464H22.2038V38H36.3074C37.7946 38 39 36.8255 39 35.3765V2.62352C39 1.17446 37.7946 0 36.3074 0Z" fill="white"/>
</g>
<defs>
<clipPath id="clip0_958_769">
<rect width="39" height="38" fill="white"/>
</clipPath>
</defs>
</svg>
