<svg width="39" height="39" viewBox="0 0 39 39" fill="none" xmlns="http://www.w3.org/2000/svg">
<g clip-path="url(#clip0_958_764)">
<path d="M19.226 24.1387C21.7252 24.1387 23.7513 22.1127 23.7513 19.6134C23.7513 17.1142 21.7252 15.0881 19.226 15.0881C16.7267 15.0881 14.7007 17.1142 14.7007 19.6134C14.7007 22.1127 16.7267 24.1387 19.226 24.1387Z" fill="white"/>
<path d="M28.7934 10.045C27.7155 8.96708 26.1915 8.62962 24.7115 8.5614C23.28 8.49588 22.8501 8.48242 19.2259 8.48242C15.6008 8.48242 15.1709 8.49588 13.7402 8.5614C12.2593 8.62962 10.7443 8.95811 9.65829 10.045C8.59024 11.1131 8.242 12.6604 8.17469 14.1269C8.10917 15.5585 8.0957 15.9884 8.0957 19.6126C8.0957 23.2377 8.10917 23.6676 8.17469 25.0982C8.2429 26.5738 8.57498 28.0978 9.65829 29.1802C10.721 30.2437 12.2799 30.5965 13.7402 30.6638C15.1718 30.7293 15.6017 30.7427 19.2259 30.7427C22.851 30.7427 23.2809 30.7293 24.7115 30.6638C26.1969 30.5956 27.7048 30.2689 28.7934 29.1802C29.8651 28.1085 30.2097 26.5702 30.277 25.0982C30.3426 23.6667 30.356 23.2368 30.356 19.6126C30.356 15.9884 30.3426 15.5576 30.277 14.1269C30.2088 12.6424 29.8821 11.1337 28.7934 10.045ZM19.2259 26.5845C15.3755 26.5845 12.2548 23.463 12.2548 19.6135C12.2548 15.764 15.3764 12.6424 19.2259 12.6424C23.0753 12.6424 26.1969 15.764 26.1969 19.6135C26.1969 23.463 23.0762 26.5845 19.2259 26.5845ZM26.4734 13.995C25.574 13.995 24.8444 13.2653 24.8444 12.366C24.8444 11.4667 25.574 10.737 26.4734 10.737C27.3727 10.737 28.1024 11.4667 28.1024 12.366C28.1024 13.2653 27.3736 13.995 26.4734 13.995Z" fill="white"/>
<path d="M0 2.69256V36.3074C0 37.7946 1.20537 39 2.69256 39H36.3074C37.7946 39 39 37.7946 39 36.3074V2.69256C39 1.20537 37.7946 0 36.3074 0H2.69256C1.20537 0 0 1.20537 0 2.69256ZM32.7209 25.2114C32.6249 27.3089 32.0478 29.3875 30.5238 30.9115C29.0079 32.4275 26.9212 33.0126 24.8236 33.1087C23.3759 33.1742 22.9128 33.1903 19.2258 33.1903C15.5388 33.1903 15.0757 33.1742 13.628 33.1087C11.5332 33.0126 9.45 32.4328 7.92781 30.9115C6.41279 29.3974 5.82671 27.308 5.73067 25.2114C5.66516 23.7637 5.649 23.3006 5.649 19.6135C5.649 15.9265 5.66516 15.4634 5.73067 14.0157C5.82671 11.9182 6.40471 9.83863 7.92781 8.31554C9.44462 6.79873 11.5287 6.21444 13.628 6.1184C15.0757 6.05288 15.5388 6.03673 19.2258 6.03673C22.9128 6.03673 23.3759 6.05288 24.8236 6.1184C26.9158 6.21354 29.0043 6.79603 30.5238 8.31554C32.0397 9.83145 32.6249 11.9164 32.7209 14.0157C32.7865 15.4634 32.8026 15.9265 32.8026 19.6135C32.8017 23.3006 32.7865 23.7628 32.7209 25.2114Z" fill="white"/>
</g>
<defs>
<clipPath id="clip0_958_764">
<rect width="39" height="39" fill="white"/>
</clipPath>
</defs>
</svg>
