<svg width="122" height="108" viewBox="0 0 122 108" fill="none" xmlns="http://www.w3.org/2000/svg">
<g clip-path="url(#clip0_1003_50)">
<path d="M108.755 0H13.2457C5.94043 0.0127958 0.0197071 5.89885 0.00683594 13.1614V94.8386C0.0197071 102.101 5.94043 107.987 13.2457 108H108.755C116.064 107.987 121.987 102.097 121.994 94.8313V13.1614C121.981 5.89702 116.062 0.0127958 108.755 0ZM5.33916 13.1541C5.34836 8.81629 8.88241 5.30293 13.2457 5.29379L108.755 5.30111C113.118 5.30842 116.654 8.8236 116.662 13.1614V20.3818H5.33916V13.1541ZM116.662 94.8313C116.654 99.1691 113.118 102.684 108.755 102.692H13.2457C8.88241 102.682 5.34836 99.1691 5.33916 94.8313V25.6829H116.662V94.8313Z" fill="#0C2796"/>
<path d="M0.00735494 22.8423V23.2225C0.00183873 23.1604 0 23.0964 0 23.0324C0 22.9684 0.00183873 22.9044 0.00735494 22.8423Z" fill="#0C2796"/>
<path d="M122 23.0322C122 23.087 121.998 23.1419 121.995 23.1967V22.8677C121.998 22.9225 122 22.9774 122 23.0322Z" fill="#0C2796"/>
<path d="M32.5532 34.313H21.0078C19.7891 34.313 18.8013 35.2951 18.8013 36.5065V47.9844C18.8013 49.1958 19.7891 50.1779 21.0078 50.1779H32.5532C33.7718 50.1779 34.7596 49.1958 34.7596 47.9844V36.5065C34.7596 35.2951 33.7718 34.313 32.5532 34.313Z" fill="#F39146"/>
<path d="M32.5532 56.6416H21.0078C19.7891 56.6416 18.8013 57.6237 18.8013 58.8352V70.313C18.8013 71.5244 19.7891 72.5065 21.0078 72.5065H32.5532C33.7718 72.5065 34.7596 71.5244 34.7596 70.313V58.8352C34.7596 57.6237 33.7718 56.6416 32.5532 56.6416Z" fill="#F39146"/>
<path d="M32.5532 79.6665H21.0078C19.7891 79.6665 18.8013 80.6486 18.8013 81.8601V93.3379C18.8013 94.5493 19.7891 95.5314 21.0078 95.5314H32.5532C33.7718 95.5314 34.7596 94.5493 34.7596 93.3379V81.8601C34.7596 80.6486 33.7718 79.6665 32.5532 79.6665Z" fill="#F39146"/>
<path d="M66.5951 34.313H55.0497C53.8311 34.313 52.8433 35.2951 52.8433 36.5065V47.9844C52.8433 49.1958 53.8311 50.1779 55.0497 50.1779H66.5951C67.8138 50.1779 68.8016 49.1958 68.8016 47.9844V36.5065C68.8016 35.2951 67.8138 34.313 66.5951 34.313Z" fill="#F39146"/>
<path d="M66.5951 56.6416H55.0497C53.8311 56.6416 52.8433 57.6237 52.8433 58.8352V70.313C52.8433 71.5244 53.8311 72.5065 55.0497 72.5065H66.5951C67.8138 72.5065 68.8016 71.5244 68.8016 70.313V58.8352C68.8016 57.6237 67.8138 56.6416 66.5951 56.6416Z" fill="#F39146"/>
<path d="M66.5951 79.6665H55.0497C53.8311 79.6665 52.8433 80.6486 52.8433 81.8601V93.3379C52.8433 94.5493 53.8311 95.5314 55.0497 95.5314H66.5951C67.8138 95.5314 68.8016 94.5493 68.8016 93.3379V81.8601C68.8016 80.6486 67.8138 79.6665 66.5951 79.6665Z" fill="#F39146"/>
<path d="M100.285 34.313H88.7392C87.5206 34.313 86.5327 35.2951 86.5327 36.5065V47.9844C86.5327 49.1958 87.5206 50.1779 88.7392 50.1779H100.285C101.503 50.1779 102.491 49.1958 102.491 47.9844V36.5065C102.491 35.2951 101.503 34.313 100.285 34.313Z" fill="#F39146"/>
<path d="M100.285 56.6416H88.7392C87.5206 56.6416 86.5327 57.6237 86.5327 58.8352V70.313C86.5327 71.5244 87.5206 72.5065 88.7392 72.5065H100.285C101.503 72.5065 102.491 71.5244 102.491 70.313V58.8352C102.491 57.6237 101.503 56.6416 100.285 56.6416Z" fill="#F39146"/>
<path d="M100.285 79.6665H88.7392C87.5206 79.6665 86.5327 80.6486 86.5327 81.8601V93.3379C86.5327 94.5493 87.5206 95.5314 88.7392 95.5314H100.285C101.503 95.5314 102.491 94.5493 102.491 93.3379V81.8601C102.491 80.6486 101.503 79.6665 100.285 79.6665Z" fill="#F39146"/>
</g>
<defs>
<clipPath id="clip0_1003_50">
<rect width="122" height="108" fill="white"/>
</clipPath>
</defs>
</svg>
