<svg width="76" height="122" viewBox="0 0 76 122" fill="none" xmlns="http://www.w3.org/2000/svg">
<g clipPath="url(#clip0_1003_38)">
<path d="M68.1901 102.378C68.1901 107.831 64.9096 112.874 58.9555 116.582C53.3418 120.075 45.9274 122 38.0757 122C30.224 122 22.8095 120.07 17.1975 116.582C11.2417 112.874 7.96289 107.831 7.96289 102.378C7.96289 98.6793 9.50871 95.0948 12.4341 92.0056C14.8981 89.4069 18.2899 87.2134 22.2996 85.6229C23.2145 86.9915 24.1165 88.3182 24.9911 89.5918C27.6713 93.4915 30.1223 96.9055 32.0376 99.5235C32.0925 99.5991 32.1473 99.6731 32.2006 99.7471C32.3087 99.8934 32.4152 100.038 32.5185 100.18C32.5717 100.25 32.6234 100.321 32.6734 100.39C32.7767 100.529 32.8767 100.665 32.9751 100.799C33.1236 101 33.2672 101.193 33.4059 101.381C34.3321 102.63 35.0599 103.595 35.531 104.216C35.5536 104.245 35.5746 104.274 35.5956 104.301C35.6375 104.358 35.6779 104.409 35.715 104.459C35.7344 104.483 35.7521 104.507 35.7699 104.53C35.8166 104.591 35.8602 104.647 35.8973 104.697C35.9748 104.797 36.0345 104.874 36.0748 104.928C36.0845 104.941 36.0942 104.954 36.1023 104.964C36.1087 104.972 36.1135 104.978 36.1184 104.985C36.1313 105.001 36.1394 105.012 36.1426 105.017H36.1442C36.1733 105.054 36.2039 105.091 36.233 105.125C36.2636 105.16 36.2943 105.194 36.3265 105.228C37.143 106.061 38.471 106.173 39.4214 105.448C39.5021 105.387 39.5795 105.319 39.6522 105.247C39.6893 105.21 39.7231 105.173 39.757 105.134C39.7925 105.097 39.8248 105.057 39.8555 105.017C39.878 104.988 40.4557 104.242 41.4448 102.92C41.511 102.831 41.5788 102.741 41.6482 102.648C41.795 102.454 41.9483 102.248 42.108 102.032C42.4291 101.601 42.7809 101.127 43.1585 100.614C43.2843 100.443 43.4134 100.268 43.5457 100.088C43.8749 99.6393 44.2218 99.1633 44.5865 98.6648C44.7317 98.4638 44.8802 98.2612 45.0302 98.0537C45.2561 97.7417 45.4885 97.4217 45.7241 97.0937C45.8031 96.9843 45.8822 96.8734 45.9629 96.7624C46.0436 96.6514 46.1226 96.5389 46.2049 96.4263C46.3679 96.1995 46.5309 95.9696 46.6971 95.7364C46.781 95.619 46.8649 95.5032 46.9488 95.3842C47.0327 95.2668 47.1182 95.1478 47.2037 95.0272C47.2893 94.9082 47.3748 94.786 47.4603 94.6654C47.7201 94.3004 47.9831 93.9305 48.2493 93.551C48.806 92.7614 49.3789 91.9429 49.9662 91.097C50.3196 90.5904 50.6762 90.0726 51.0376 89.5468C51.9154 88.2715 52.8126 86.9432 53.7323 85.5747C62.691 89.0917 68.1885 95.426 68.1885 102.378H68.1901Z" fill="#F39146"/>
<path d="M37.9985 58.4165C26.6098 58.4165 17.3768 49.2149 17.3784 37.8631C17.3784 26.513 26.6114 17.313 37.9985 17.313C49.3694 17.313 58.6217 26.5323 58.6217 37.8648C58.6217 49.1972 49.3694 58.4165 37.9985 58.4165ZM37.9985 21.9765C29.1931 21.9765 22.0562 29.0909 22.0578 37.8664C22.0594 46.6419 29.1963 53.7546 38.0017 53.753C46.8054 53.753 53.9423 46.6387 53.9423 37.8648C53.9294 29.0957 46.7974 21.991 37.9985 21.9814V21.9765Z" fill="#0C2796"/>
<path d="M32.9768 100.798C33.1236 100.999 33.2672 101.192 33.4076 101.381C33.2688 101.192 33.1252 100.999 32.9768 100.798ZM22.3013 85.6226C23.2162 86.9911 24.1182 88.3178 24.9927 89.5914C27.6729 93.4911 30.1239 96.9051 32.0409 99.5231C30.1256 96.9051 27.6745 93.4911 24.9943 89.5914C24.1198 88.3178 23.2178 86.9911 22.3029 85.6226H22.3013ZM35.7715 104.529C35.8183 104.59 35.8602 104.647 35.899 104.696C35.8619 104.647 35.8183 104.59 35.7715 104.529ZM35.899 104.696C35.9748 104.796 36.0345 104.873 36.0765 104.928C36.0361 104.873 35.9764 104.796 35.899 104.696ZM36.1459 105.016H36.1442C36.1733 105.053 36.2023 105.09 36.2346 105.124C36.2056 105.09 36.1749 105.053 36.1459 105.016ZM36.1442 105.016C36.1442 105.016 36.1329 105 36.12 104.984C36.1346 105.002 36.141 105.013 36.1442 105.016Z" fill="#0C2796"/>
<path d="M64.8662 11.0929C50.0293 -3.69695 25.9707 -3.69856 11.1305 11.0897C4.00331 18.1912 0 27.8254 0 37.8697C0 46.4587 6.12034 60.4123 18.1932 79.3415C19.5712 81.5012 20.9508 83.6062 22.2998 85.6228C23.2147 86.9913 24.1167 88.318 24.9913 89.5917C27.6714 93.4914 30.1225 96.9054 32.0378 99.5234C32.0927 99.599 32.1475 99.673 32.2008 99.7469C32.3089 99.8933 32.4154 100.038 32.5186 100.18C32.5719 100.25 32.6235 100.321 32.6735 100.39C32.7768 100.528 32.8769 100.665 32.9753 100.799C33.1237 101 33.2673 101.193 33.4061 101.381C34.3323 102.63 35.06 103.595 35.5312 104.216C35.5538 104.245 35.5748 104.274 35.5958 104.301C35.6377 104.357 35.678 104.409 35.7152 104.459C35.7345 104.483 35.7523 104.507 35.77 104.529C35.8168 104.591 35.8604 104.647 35.8975 104.697C35.9749 104.796 36.0346 104.874 36.075 104.928C36.0847 104.941 36.0944 104.954 36.1024 104.964C36.1089 104.972 36.1137 104.978 36.1186 104.985C36.1315 105.001 36.1395 105.012 36.1428 105.017H36.1444C36.1734 105.054 36.2041 105.091 36.2331 105.125C36.2638 105.16 36.2944 105.194 36.3267 105.227C37.1432 106.06 38.4712 106.173 39.4216 105.448C39.5022 105.387 39.5797 105.319 39.6523 105.247C39.6894 105.21 39.7233 105.173 39.7572 105.134C39.7911 105.097 39.8234 105.057 39.854 105.017C39.875 104.988 40.4527 104.242 41.445 102.92C41.5112 102.831 41.5789 102.741 41.6483 102.648C41.7935 102.453 41.9468 102.248 42.1082 102.032C42.4293 101.601 42.7811 101.127 43.1586 100.614C43.2845 100.443 43.4136 100.268 43.5459 100.088C43.8751 99.6392 44.222 99.1632 44.5867 98.6647C44.7319 98.4637 44.8803 98.261 45.0304 98.0536C45.2563 97.7416 45.487 97.4216 45.7242 97.0936C45.8033 96.9842 45.8824 96.8732 45.9631 96.7623C46.0437 96.6513 46.1228 96.5387 46.2051 96.4262C46.3665 96.1994 46.531 95.9695 46.6972 95.7363C46.7811 95.6189 46.8651 95.5031 46.949 95.3841C47.0329 95.2667 47.1184 95.1477 47.2039 95.0271C47.2894 94.9081 47.3749 94.7859 47.4605 94.6653C47.7186 94.3002 47.9817 93.9304 48.2495 93.5509C48.8062 92.7613 49.379 91.9427 49.9664 91.0969C50.3181 90.5903 50.6747 90.0725 51.0362 89.5466C51.914 88.2714 52.8111 86.9431 53.7309 85.5746C55.0701 83.5741 56.4385 81.4835 57.8052 79.3415C69.878 60.4123 75.9984 46.4587 75.9984 37.8697C76.0242 27.8206 72.016 18.1783 64.8646 11.0929H64.8662ZM53.8712 76.812C47.5073 86.8 41.0674 95.6125 37.9984 99.7196C34.9326 95.6125 28.4944 86.8 22.1255 76.812C10.7175 58.912 4.68102 45.4456 4.68102 37.8697C4.68102 19.5597 19.6277 4.66527 37.9984 4.66527C56.3691 4.66527 71.3158 19.5597 71.3158 37.8697C71.3158 45.4456 65.2842 58.912 53.8712 76.812Z" fill="#0C2796"/>
</g>
<defs>
<clipPath id="clip0_1003_38">
<rect width="76" height="122" fill="white"/>
</clipPath>
</defs>
</svg>
