<svg width="122" height="108" viewBox="0 0 122 108" fill="none" xmlns="http://www.w3.org/2000/svg">
<g clip-path="url(#clip0_1011_49)">
<path d="M108.755 0H13.2457C5.94043 0.0127958 0.0197071 5.89885 0.00683594 13.1614V94.8386C0.0197071 102.101 5.94043 107.987 13.2457 108H108.755C116.064 107.987 121.987 102.097 121.994 94.8313V13.1614C121.981 5.89702 116.062 0.0127958 108.755 0ZM5.33916 13.1541C5.34836 8.81629 8.88241 5.30293 13.2457 5.29379L108.755 5.30111C113.118 5.30842 116.654 8.8236 116.662 13.1614V20.3818H5.33916V13.1541ZM116.662 94.8313C116.654 99.1691 113.118 102.684 108.755 102.692H13.2457C8.88241 102.682 5.34836 99.1691 5.33916 94.8313V25.6829H116.662V94.8313Z" fill="#0C2796"/>
<path d="M0.00735494 22.8423V23.2225C0.00183873 23.1604 0 23.0964 0 23.0324C0 22.9684 0.00183873 22.9044 0.00735494 22.8423Z" fill="#0C2796"/>
<path d="M122 23.0324C122 23.0872 121.998 23.1421 121.995 23.1969V22.8679C121.998 22.9227 122 22.9776 122 23.0324Z" fill="#0C2796"/>
<path d="M32.5532 34.3128H21.0078C19.7891 34.3128 18.8013 35.2949 18.8013 36.5064V47.9842C18.8013 49.1956 19.7891 50.1777 21.0078 50.1777H32.5532C33.7718 50.1777 34.7596 49.1956 34.7596 47.9842V36.5064C34.7596 35.2949 33.7718 34.3128 32.5532 34.3128Z" fill="white"/>
<path d="M32.5532 56.6414H21.0078C19.7891 56.6414 18.8013 57.6235 18.8013 58.835V70.3128C18.8013 71.5242 19.7891 72.5063 21.0078 72.5063H32.5532C33.7718 72.5063 34.7596 71.5242 34.7596 70.3128V58.835C34.7596 57.6235 33.7718 56.6414 32.5532 56.6414Z" fill="white"/>
<path d="M32.5532 79.6665H21.0078C19.7891 79.6665 18.8013 80.6486 18.8013 81.8601V93.3379C18.8013 94.5493 19.7891 95.5314 21.0078 95.5314H32.5532C33.7718 95.5314 34.7596 94.5493 34.7596 93.3379V81.8601C34.7596 80.6486 33.7718 79.6665 32.5532 79.6665Z" fill="white"/>
<path d="M66.5951 34.3128H55.0497C53.8311 34.3128 52.8433 35.2949 52.8433 36.5064V47.9842C52.8433 49.1956 53.8311 50.1777 55.0497 50.1777H66.5951C67.8138 50.1777 68.8016 49.1956 68.8016 47.9842V36.5064C68.8016 35.2949 67.8138 34.3128 66.5951 34.3128Z" fill="white"/>
<path d="M66.5951 56.6414H55.0497C53.8311 56.6414 52.8433 57.6235 52.8433 58.835V70.3128C52.8433 71.5242 53.8311 72.5063 55.0497 72.5063H66.5951C67.8138 72.5063 68.8016 71.5242 68.8016 70.3128V58.835C68.8016 57.6235 67.8138 56.6414 66.5951 56.6414Z" fill="white"/>
<path d="M66.5951 79.6665H55.0497C53.8311 79.6665 52.8433 80.6486 52.8433 81.8601V93.3379C52.8433 94.5493 53.8311 95.5314 55.0497 95.5314H66.5951C67.8138 95.5314 68.8016 94.5493 68.8016 93.3379V81.8601C68.8016 80.6486 67.8138 79.6665 66.5951 79.6665Z" fill="white"/>
<path d="M100.285 34.3128H88.7392C87.5206 34.3128 86.5327 35.2949 86.5327 36.5064V47.9842C86.5327 49.1956 87.5206 50.1777 88.7392 50.1777H100.285C101.503 50.1777 102.491 49.1956 102.491 47.9842V36.5064C102.491 35.2949 101.503 34.3128 100.285 34.3128Z" fill="white"/>
<path d="M100.285 56.6414H88.7392C87.5206 56.6414 86.5327 57.6235 86.5327 58.835V70.3128C86.5327 71.5242 87.5206 72.5063 88.7392 72.5063H100.285C101.503 72.5063 102.491 71.5242 102.491 70.3128V58.835C102.491 57.6235 101.503 56.6414 100.285 56.6414Z" fill="white"/>
<path d="M100.285 79.6665H88.7392C87.5206 79.6665 86.5327 80.6486 86.5327 81.8601V93.3379C86.5327 94.5493 87.5206 95.5314 88.7392 95.5314H100.285C101.503 95.5314 102.491 94.5493 102.491 93.3379V81.8601C102.491 80.6486 101.503 79.6665 100.285 79.6665Z" fill="white"/>
</g>
<defs>
<clipPath id="clip0_1011_49">
<rect width="122" height="108" fill="white"/>
</clipPath>
</defs>
</svg>
