<svg width="111" height="121" viewBox="0 0 111 121" fill="none" xmlns="http://www.w3.org/2000/svg">
<g clipPath="url(#clip0_1003_63)">
<path d="M110.257 23.5244L88.3143 0.80346C87.8241 0.295149 87.1505 0.00546571 86.446 0H86.4224C85.727 0 85.0588 0.276929 84.5649 0.768844L28.7698 56.5191C28.3686 56.9218 28.1071 57.4428 28.0236 58.0058L24.0544 84.9427C24.0363 85.0702 24.0254 85.1996 24.0254 85.3307C24.0254 86.7883 25.2056 87.9707 26.66 87.9707C26.818 87.9707 26.9759 87.9561 27.1321 87.9269L53.9792 83.0078C54.5058 82.9112 54.9887 82.658 55.3682 82.279L87.8023 49.7325L88.0674 49.4684L110.228 27.2302C111.245 26.2099 111.258 24.5611 110.257 23.5244ZM52.2325 77.9593L29.8012 82.0695L33.1058 59.6455L63.7278 29.0485L82.3497 47.7339L52.2325 77.9593ZM86.0683 44.0026L67.4572 25.3208L86.3897 6.40217L104.672 25.3336L86.0683 44.0026Z" fill="#0C2796"/>
<path d="M99.2596 121C98.2174 121 97.2732 120.384 96.852 119.428C92.8302 110.318 86.1011 103.654 77.9014 100.68C70.6385 98.0423 62.1973 97.8127 53.5163 100.019C48.0274 101.413 42.5168 103.727 36.6683 107.092C34.6166 108.272 32.6974 109.668 30.6656 111.145C28.0582 113.044 25.3619 115.006 22.3224 116.504C17.1476 119.054 11.6841 119.441 7.3373 117.553C3.97823 116.101 1.44895 113.21 0.452119 109.679C-0.504762 106.376 0.0726351 102.816 2.02271 99.9862C5.80666 94.5205 12.7354 91.7148 16.5484 90.5324C17.9284 90.0733 19.4191 90.8239 19.8766 92.2085C20.3342 93.5932 19.5861 95.089 18.2062 95.5481C18.1753 95.559 18.1426 95.5681 18.1099 95.5772C14.9597 96.5592 9.24017 98.8311 6.355 103.001C5.29644 104.525 4.98959 106.45 5.52341 108.229C6.10443 110.227 7.53703 111.863 9.43808 112.698C12.3686 113.973 16.2216 113.627 20.011 111.758C22.6456 110.457 25.046 108.711 27.5861 106.864C29.6397 105.368 31.7623 103.823 34.061 102.502C40.3306 98.8949 46.2753 96.4062 52.2344 94.8922C61.9394 92.4272 71.4374 92.7059 79.7026 95.7048C89.2659 99.1664 97.0699 106.837 101.673 117.283C102.263 118.617 101.664 120.18 100.335 120.772C99.9968 120.924 99.63 121 99.2596 121Z" fill="#F39146"/>
<path d="M88.0673 49.4683C88.0238 49.5175 87.9802 49.5648 87.933 49.6122C87.8912 49.6541 87.8476 49.6942 87.8022 49.7324L88.0673 49.4683Z" fill="#0C2796"/>
</g>
<defs>
<clipPath id="clip0_1003_63">
<rect width="111" height="121" fill="white"/>
</clipPath>
</defs>
</svg>
