<svg width="104" height="122" viewBox="0 0 104 122" fill="none" xmlns="http://www.w3.org/2000/svg">
<g clip-path="url(#clip0_1003_43)">
<path d="M101.551 0H24.732C23.3918 0 22.3062 1.08375 22.3062 2.41933V67.2967C23.9059 66.9806 25.5301 66.8069 27.1595 66.7757V4.83693H99.1324V97.7893H55.2168C55.0164 99.4306 54.6661 101.049 54.1712 102.626H101.572C102.912 102.626 103.998 101.544 104 100.209V2.41933C103.998 1.08201 102.911 0 101.569 0C101.563 0 101.557 0 101.551 0Z" fill="#0C2796"/>
<path d="M75.6499 24.1394H39.9022C38.562 24.1394 37.4746 23.0557 37.4746 21.7201C37.4746 20.3845 38.562 19.3008 39.9022 19.3008H75.6499C76.99 19.3008 78.0757 20.3863 78.0757 21.7219C78.0757 23.0557 76.99 24.1377 75.6499 24.1394Z" fill="#0C2796"/>
<path d="M85.2522 38.4522H39.9023C38.5622 38.4157 37.5044 37.3042 37.541 35.9686C37.5758 34.6834 38.6127 33.65 39.9023 33.6152H85.2522C86.5923 33.6517 87.6501 34.7632 87.6136 36.0988C87.5787 37.384 86.5418 38.4174 85.2522 38.4522Z" fill="#0C2796"/>
<path d="M74.1722 52.6069H40.7893C39.4492 52.6434 38.3339 51.5891 38.2973 50.2536C38.2607 48.918 39.3185 47.8064 40.6586 47.77C40.7022 47.77 40.7458 47.77 40.7893 47.77H74.1722C75.5124 47.7335 76.6277 48.7877 76.6643 50.1233C76.7009 51.4589 75.6431 52.5704 74.3029 52.6069C74.2594 52.6069 74.2158 52.6069 74.1722 52.6069Z" fill="#0C2796"/>
<path d="M85.2522 66.7603H40.7893C39.4492 66.7967 38.3339 65.7425 38.2973 64.4069C38.2607 63.0713 39.3185 61.9598 40.6586 61.9233C40.7022 61.9233 40.7458 61.9233 40.7893 61.9233H85.2522C86.5924 61.9598 87.6502 63.0713 87.6136 64.4069C87.5787 65.6921 86.5418 66.7255 85.2522 66.7603Z" fill="#0C2796"/>
<path d="M27.707 66.7705H27.1598C25.5303 66.8018 23.9062 66.9754 22.3064 67.2915C9.60394 69.8029 0 80.9947 0 94.3853C0 109.613 12.4323 122 27.7087 122C40.1097 122 50.6337 113.837 54.1609 102.625C54.6558 101.048 55.0061 99.4289 55.2065 97.7876C55.3442 96.6587 55.4157 95.5211 55.4157 94.3835C55.4191 79.1589 42.9868 66.7705 27.707 66.7705ZM42.7882 84.0688L33.3149 97.7894L29.9742 102.626L26.6491 107.444C26.196 108.099 25.4484 108.488 24.6503 108.486H24.5353C23.6953 108.448 22.9355 107.981 22.526 107.25L13.9171 91.8079C13.2653 90.6373 13.6905 89.1628 14.8634 88.515C16.0379 87.8654 17.5175 88.2892 18.1675 89.458L22.3081 96.888L24.8716 101.489L27.4264 97.7894L38.7922 81.3282C39.552 80.2288 41.0629 79.9492 42.166 80.7064C43.2691 81.4637 43.5497 82.9694 42.7899 84.0688H42.7864H42.7882Z" fill="#F39146"/>
</g>
<defs>
<clipPath id="clip0_1003_43">
<rect width="104" height="122" fill="white"/>
</clipPath>
</defs>
</svg>
